<mxfile host="app.diagrams.net" modified="2023-12-29T18:26:38.063Z" agent="Mozilla/5.0 (Windows NT 10.0; Win64; x64) AppleWebKit/537.36 (KHTML, like Gecko) Chrome/120.0.0.0 Safari/537.36" etag="xB5bzwo4FxCEW6BgFR9U" version="22.1.16" type="github">
  <diagram id="C5RBs43oDa-KdzZeNtuy" name="Page-1">
    <mxGraphModel dx="2736" dy="2118" grid="1" gridSize="10" guides="1" tooltips="1" connect="1" arrows="1" fold="1" page="1" pageScale="1" pageWidth="827" pageHeight="1169" math="0" shadow="0">
      <root>
        <mxCell id="WIyWlLk6GJQsqaUBKTNV-0" />
        <mxCell id="WIyWlLk6GJQsqaUBKTNV-1" parent="WIyWlLk6GJQsqaUBKTNV-0" />
        <mxCell id="j7wIYf2BwnpDg87sZHBd-4" style="edgeStyle=orthogonalEdgeStyle;rounded=0;orthogonalLoop=1;jettySize=auto;html=1;exitX=0.5;exitY=1;exitDx=0;exitDy=0;exitPerimeter=0;" edge="1" parent="WIyWlLk6GJQsqaUBKTNV-1">
          <mxGeometry relative="1" as="geometry">
            <mxPoint x="300" y="-570" as="targetPoint" />
            <mxPoint x="302.99" y="-720" as="sourcePoint" />
            <Array as="points">
              <mxPoint x="299.99" y="-719" />
              <mxPoint x="299.99" y="-370" />
            </Array>
          </mxGeometry>
        </mxCell>
        <mxCell id="j7wIYf2BwnpDg87sZHBd-0" value="&lt;font style=&quot;font-size: 24px;&quot;&gt;Mulai&lt;/font&gt;" style="strokeWidth=2;html=1;shape=mxgraph.flowchart.start_2;whiteSpace=wrap;" vertex="1" parent="WIyWlLk6GJQsqaUBKTNV-1">
          <mxGeometry x="160" y="-950" width="270" height="230" as="geometry" />
        </mxCell>
        <mxCell id="j7wIYf2BwnpDg87sZHBd-1" value="&lt;font style=&quot;font-size: 48px;&quot;&gt;Diagram Proses Pendaftaran Perusahaan&lt;br&gt;&amp;nbsp;Sebagai Mitra PT.XYZ&amp;nbsp;&lt;br&gt;Oleh: Prastya Susanto&lt;br&gt;&lt;br&gt;&lt;/font&gt;" style="text;strokeColor=none;align=center;fillColor=none;html=1;verticalAlign=middle;whiteSpace=wrap;rounded=0;" vertex="1" parent="WIyWlLk6GJQsqaUBKTNV-1">
          <mxGeometry x="80" y="-1150" width="1530" height="220" as="geometry" />
        </mxCell>
        <mxCell id="j7wIYf2BwnpDg87sZHBd-5" value="&lt;font style=&quot;font-size: 24px;&quot;&gt;Halaman Login&lt;br&gt;&amp;nbsp;Perusahaan Mitra&lt;/font&gt;" style="shape=parallelogram;html=1;strokeWidth=2;perimeter=parallelogramPerimeter;whiteSpace=wrap;rounded=1;arcSize=12;size=0.23;" vertex="1" parent="WIyWlLk6GJQsqaUBKTNV-1">
          <mxGeometry x="65" y="-570" width="480" height="270" as="geometry" />
        </mxCell>
        <mxCell id="j7wIYf2BwnpDg87sZHBd-6" style="edgeStyle=orthogonalEdgeStyle;rounded=0;orthogonalLoop=1;jettySize=auto;html=1;exitX=0.5;exitY=1;exitDx=0;exitDy=0;exitPerimeter=0;" edge="1" parent="WIyWlLk6GJQsqaUBKTNV-1">
          <mxGeometry relative="1" as="geometry">
            <mxPoint x="293.98" y="-100" as="targetPoint" />
            <mxPoint x="296.48" y="-300" as="sourcePoint" />
            <Array as="points">
              <mxPoint x="293.48" y="-299" />
              <mxPoint x="293.48" y="50" />
            </Array>
          </mxGeometry>
        </mxCell>
        <mxCell id="j7wIYf2BwnpDg87sZHBd-52" style="edgeStyle=orthogonalEdgeStyle;rounded=0;orthogonalLoop=1;jettySize=auto;html=1;exitX=0.5;exitY=1;exitDx=0;exitDy=0;exitPerimeter=0;" edge="1" parent="WIyWlLk6GJQsqaUBKTNV-1" source="j7wIYf2BwnpDg87sZHBd-9">
          <mxGeometry relative="1" as="geometry">
            <mxPoint x="130" y="310" as="targetPoint" />
          </mxGeometry>
        </mxCell>
        <mxCell id="j7wIYf2BwnpDg87sZHBd-54" style="edgeStyle=orthogonalEdgeStyle;rounded=0;orthogonalLoop=1;jettySize=auto;html=1;exitX=0.5;exitY=1;exitDx=0;exitDy=0;exitPerimeter=0;" edge="1" parent="WIyWlLk6GJQsqaUBKTNV-1" source="j7wIYf2BwnpDg87sZHBd-9">
          <mxGeometry relative="1" as="geometry">
            <mxPoint x="1040" y="420" as="targetPoint" />
            <Array as="points">
              <mxPoint x="295" y="270" />
              <mxPoint x="1040" y="270" />
              <mxPoint x="1040" y="320" />
            </Array>
          </mxGeometry>
        </mxCell>
        <mxCell id="j7wIYf2BwnpDg87sZHBd-9" value="&lt;font style=&quot;font-size: 24px;&quot;&gt;Apakah Perusahaan Mitra Memiliki Akun?&lt;/font&gt;" style="strokeWidth=2;html=1;shape=mxgraph.flowchart.decision;whiteSpace=wrap;" vertex="1" parent="WIyWlLk6GJQsqaUBKTNV-1">
          <mxGeometry x="118.5" y="-110" width="353" height="340" as="geometry" />
        </mxCell>
        <mxCell id="j7wIYf2BwnpDg87sZHBd-21" value="&lt;font style=&quot;font-size: 24px;&quot;&gt;YA&lt;/font&gt;" style="text;strokeColor=none;align=center;fillColor=none;html=1;verticalAlign=middle;whiteSpace=wrap;rounded=0;" vertex="1" parent="WIyWlLk6GJQsqaUBKTNV-1">
          <mxGeometry x="140" y="290" width="60" height="15" as="geometry" />
        </mxCell>
        <mxCell id="j7wIYf2BwnpDg87sZHBd-22" value="&lt;font style=&quot;font-size: 24px;&quot;&gt;TIDAK&lt;/font&gt;" style="text;strokeColor=none;align=center;fillColor=none;html=1;verticalAlign=middle;whiteSpace=wrap;rounded=0;" vertex="1" parent="WIyWlLk6GJQsqaUBKTNV-1">
          <mxGeometry x="430" y="322.5" width="60" height="30" as="geometry" />
        </mxCell>
        <mxCell id="j7wIYf2BwnpDg87sZHBd-32" value="&lt;font style=&quot;font-size: 24px;&quot;&gt;Masukkan informasi login: email dan password&lt;/font&gt;" style="rounded=1;whiteSpace=wrap;html=1;" vertex="1" parent="WIyWlLk6GJQsqaUBKTNV-1">
          <mxGeometry y="322.5" width="300" height="100" as="geometry" />
        </mxCell>
        <mxCell id="j7wIYf2BwnpDg87sZHBd-33" value="" style="endArrow=classic;html=1;rounded=0;" edge="1" parent="WIyWlLk6GJQsqaUBKTNV-1">
          <mxGeometry width="50" height="50" relative="1" as="geometry">
            <mxPoint x="130" y="420" as="sourcePoint" />
            <mxPoint x="130.45" y="490" as="targetPoint" />
          </mxGeometry>
        </mxCell>
        <mxCell id="j7wIYf2BwnpDg87sZHBd-87" style="edgeStyle=orthogonalEdgeStyle;rounded=0;orthogonalLoop=1;jettySize=auto;html=1;exitX=0.5;exitY=1;exitDx=0;exitDy=0;" edge="1" parent="WIyWlLk6GJQsqaUBKTNV-1" source="j7wIYf2BwnpDg87sZHBd-34">
          <mxGeometry relative="1" as="geometry">
            <mxPoint x="380" y="920" as="targetPoint" />
            <Array as="points">
              <mxPoint x="133" y="590" />
              <mxPoint x="380" y="590" />
              <mxPoint x="380" y="790" />
            </Array>
          </mxGeometry>
        </mxCell>
        <mxCell id="j7wIYf2BwnpDg87sZHBd-95" style="edgeStyle=orthogonalEdgeStyle;rounded=0;orthogonalLoop=1;jettySize=auto;html=1;" edge="1" parent="WIyWlLk6GJQsqaUBKTNV-1" source="j7wIYf2BwnpDg87sZHBd-34">
          <mxGeometry relative="1" as="geometry">
            <mxPoint x="-80" y="920" as="targetPoint" />
          </mxGeometry>
        </mxCell>
        <mxCell id="j7wIYf2BwnpDg87sZHBd-34" value="&lt;font style=&quot;font-size: 24px;&quot;&gt;Apakah Password Benar?&lt;/font&gt;" style="rhombus;whiteSpace=wrap;html=1;" vertex="1" parent="WIyWlLk6GJQsqaUBKTNV-1">
          <mxGeometry x="10" y="490" width="245" height="200" as="geometry" />
        </mxCell>
        <mxCell id="j7wIYf2BwnpDg87sZHBd-61" value="&lt;font style=&quot;font-size: 24px;&quot;&gt;TIDAK&lt;/font&gt;" style="text;html=1;strokeColor=none;fillColor=none;align=center;verticalAlign=middle;whiteSpace=wrap;rounded=0;" vertex="1" parent="WIyWlLk6GJQsqaUBKTNV-1">
          <mxGeometry x="310" y="740" width="60" height="30" as="geometry" />
        </mxCell>
        <mxCell id="j7wIYf2BwnpDg87sZHBd-66" style="edgeStyle=orthogonalEdgeStyle;rounded=0;orthogonalLoop=1;jettySize=auto;html=1;exitX=0.5;exitY=1;exitDx=0;exitDy=0;" edge="1" parent="WIyWlLk6GJQsqaUBKTNV-1" source="j7wIYf2BwnpDg87sZHBd-64">
          <mxGeometry relative="1" as="geometry">
            <mxPoint x="-80" y="1170" as="targetPoint" />
            <Array as="points">
              <mxPoint x="-80" y="1150" />
            </Array>
          </mxGeometry>
        </mxCell>
        <mxCell id="j7wIYf2BwnpDg87sZHBd-64" value="&lt;font style=&quot;font-size: 24px;&quot;&gt;Login Berhasil&lt;/font&gt;" style="shape=parallelogram;perimeter=parallelogramPerimeter;whiteSpace=wrap;html=1;fixedSize=1;" vertex="1" parent="WIyWlLk6GJQsqaUBKTNV-1">
          <mxGeometry x="-190" y="920" width="220" height="120" as="geometry" />
        </mxCell>
        <mxCell id="j7wIYf2BwnpDg87sZHBd-67" value="&lt;font style=&quot;font-size: 24px;&quot;&gt;Masukkan Projek yang&amp;nbsp;&lt;br&gt;Diinginkan&amp;nbsp;&lt;/font&gt;" style="rounded=1;whiteSpace=wrap;html=1;absoluteArcSize=1;arcSize=14;strokeWidth=2;" vertex="1" parent="WIyWlLk6GJQsqaUBKTNV-1">
          <mxGeometry x="-230" y="1169" width="320" height="100" as="geometry" />
        </mxCell>
        <mxCell id="j7wIYf2BwnpDg87sZHBd-71" value="&lt;font style=&quot;font-size: 24px;&quot;&gt;Berhasil, dapat &lt;br&gt;log out/melanjutkan penggunaan fitur&lt;/font&gt;" style="strokeWidth=2;html=1;shape=mxgraph.flowchart.start_2;whiteSpace=wrap;" vertex="1" parent="WIyWlLk6GJQsqaUBKTNV-1">
          <mxGeometry x="-190" y="1340" width="240" height="190" as="geometry" />
        </mxCell>
        <mxCell id="j7wIYf2BwnpDg87sZHBd-80" value="" style="endArrow=classic;html=1;rounded=0;entryX=0;entryY=0.25;entryDx=0;entryDy=0;exitX=0.061;exitY=0.273;exitDx=0;exitDy=0;exitPerimeter=0;" edge="1" parent="WIyWlLk6GJQsqaUBKTNV-1" source="j7wIYf2BwnpDg87sZHBd-71" target="j7wIYf2BwnpDg87sZHBd-32">
          <mxGeometry width="50" height="50" relative="1" as="geometry">
            <mxPoint x="-80" y="1410" as="sourcePoint" />
            <mxPoint x="-510" y="1060" as="targetPoint" />
            <Array as="points">
              <mxPoint x="-250" y="1390" />
              <mxPoint x="-250" y="348" />
            </Array>
          </mxGeometry>
        </mxCell>
        <mxCell id="j7wIYf2BwnpDg87sZHBd-81" value="&lt;font style=&quot;font-size: 24px;&quot;&gt;LOGOUT,&lt;br&gt;kembali ke Menu Awal Login&lt;br&gt;&lt;/font&gt;" style="text;html=1;strokeColor=none;fillColor=none;align=center;verticalAlign=middle;whiteSpace=wrap;rounded=0;" vertex="1" parent="WIyWlLk6GJQsqaUBKTNV-1">
          <mxGeometry x="-450" y="830" width="190" height="100" as="geometry" />
        </mxCell>
        <mxCell id="j7wIYf2BwnpDg87sZHBd-93" style="edgeStyle=orthogonalEdgeStyle;rounded=0;orthogonalLoop=1;jettySize=auto;html=1;exitX=0.5;exitY=1;exitDx=0;exitDy=0;entryX=0.5;entryY=0;entryDx=0;entryDy=0;entryPerimeter=0;" edge="1" parent="WIyWlLk6GJQsqaUBKTNV-1" source="j7wIYf2BwnpDg87sZHBd-67" target="j7wIYf2BwnpDg87sZHBd-71">
          <mxGeometry relative="1" as="geometry" />
        </mxCell>
        <mxCell id="j7wIYf2BwnpDg87sZHBd-96" value="&lt;span style=&quot;font-size: 24px;&quot;&gt;YA&lt;/span&gt;" style="text;html=1;strokeColor=none;fillColor=none;align=center;verticalAlign=middle;whiteSpace=wrap;rounded=0;" vertex="1" parent="WIyWlLk6GJQsqaUBKTNV-1">
          <mxGeometry x="-70" y="740" width="60" height="30" as="geometry" />
        </mxCell>
        <mxCell id="j7wIYf2BwnpDg87sZHBd-101" value="" style="edgeStyle=orthogonalEdgeStyle;rounded=0;orthogonalLoop=1;jettySize=auto;html=1;" edge="1" parent="WIyWlLk6GJQsqaUBKTNV-1" source="j7wIYf2BwnpDg87sZHBd-98">
          <mxGeometry relative="1" as="geometry">
            <mxPoint x="160" y="1390" as="targetPoint" />
          </mxGeometry>
        </mxCell>
        <mxCell id="j7wIYf2BwnpDg87sZHBd-103" value="" style="edgeStyle=orthogonalEdgeStyle;rounded=0;orthogonalLoop=1;jettySize=auto;html=1;" edge="1" parent="WIyWlLk6GJQsqaUBKTNV-1" source="j7wIYf2BwnpDg87sZHBd-98">
          <mxGeometry relative="1" as="geometry">
            <mxPoint x="610" y="1210" as="targetPoint" />
          </mxGeometry>
        </mxCell>
        <mxCell id="j7wIYf2BwnpDg87sZHBd-98" value="&lt;font style=&quot;font-size: 24px;&quot;&gt;Apakah Lupa Password&lt;/font&gt;" style="rhombus;whiteSpace=wrap;html=1;" vertex="1" parent="WIyWlLk6GJQsqaUBKTNV-1">
          <mxGeometry x="270" y="920" width="226" height="220" as="geometry" />
        </mxCell>
        <mxCell id="j7wIYf2BwnpDg87sZHBd-107" value="&lt;span style=&quot;font-size: 24px;&quot;&gt;YA&lt;/span&gt;" style="text;html=1;strokeColor=none;fillColor=none;align=center;verticalAlign=middle;whiteSpace=wrap;rounded=0;" vertex="1" parent="WIyWlLk6GJQsqaUBKTNV-1">
          <mxGeometry x="150" y="1190" width="60" height="30" as="geometry" />
        </mxCell>
        <mxCell id="j7wIYf2BwnpDg87sZHBd-109" style="edgeStyle=orthogonalEdgeStyle;rounded=0;orthogonalLoop=1;jettySize=auto;html=1;exitX=0.75;exitY=0;exitDx=0;exitDy=0;" edge="1" parent="WIyWlLk6GJQsqaUBKTNV-1" source="j7wIYf2BwnpDg87sZHBd-108">
          <mxGeometry relative="1" as="geometry">
            <mxPoint x="220" y="1390.0000000000005" as="targetPoint" />
          </mxGeometry>
        </mxCell>
        <mxCell id="j7wIYf2BwnpDg87sZHBd-111" style="edgeStyle=orthogonalEdgeStyle;rounded=0;orthogonalLoop=1;jettySize=auto;html=1;exitX=0.5;exitY=1;exitDx=0;exitDy=0;entryX=1.006;entryY=0.652;entryDx=0;entryDy=0;entryPerimeter=0;" edge="1" parent="WIyWlLk6GJQsqaUBKTNV-1">
          <mxGeometry relative="1" as="geometry">
            <mxPoint x="301.8000000000002" y="367.6999999999998" as="targetPoint" />
            <mxPoint x="170" y="1455" as="sourcePoint" />
            <Array as="points">
              <mxPoint x="170" y="1530" />
              <mxPoint x="820" y="1530" />
              <mxPoint x="820" y="368" />
            </Array>
          </mxGeometry>
        </mxCell>
        <mxCell id="j7wIYf2BwnpDg87sZHBd-108" value="&lt;span style=&quot;font-size: 24px;&quot;&gt;Reset Password&lt;br&gt;Via Email&lt;br&gt;&lt;/span&gt;" style="rounded=1;whiteSpace=wrap;html=1;absoluteArcSize=1;arcSize=14;strokeWidth=2;" vertex="1" parent="WIyWlLk6GJQsqaUBKTNV-1">
          <mxGeometry x="57.5" y="1395" width="225" height="80" as="geometry" />
        </mxCell>
        <mxCell id="j7wIYf2BwnpDg87sZHBd-114" value="" style="edgeStyle=orthogonalEdgeStyle;rounded=0;orthogonalLoop=1;jettySize=auto;html=1;" edge="1" parent="WIyWlLk6GJQsqaUBKTNV-1" source="j7wIYf2BwnpDg87sZHBd-112">
          <mxGeometry relative="1" as="geometry">
            <mxPoint x="230" y="1390" as="targetPoint" />
            <Array as="points">
              <mxPoint x="230" y="1320" />
            </Array>
          </mxGeometry>
        </mxCell>
        <mxCell id="j7wIYf2BwnpDg87sZHBd-120" value="" style="edgeStyle=orthogonalEdgeStyle;rounded=0;orthogonalLoop=1;jettySize=auto;html=1;entryX=1;entryY=0.75;entryDx=0;entryDy=0;" edge="1" parent="WIyWlLk6GJQsqaUBKTNV-1" source="j7wIYf2BwnpDg87sZHBd-112" target="j7wIYf2BwnpDg87sZHBd-32">
          <mxGeometry relative="1" as="geometry">
            <mxPoint x="740" y="410" as="targetPoint" />
            <Array as="points">
              <mxPoint x="742" y="1320" />
              <mxPoint x="742" y="811" />
              <mxPoint x="741" y="397" />
            </Array>
          </mxGeometry>
        </mxCell>
        <mxCell id="j7wIYf2BwnpDg87sZHBd-112" value="&lt;font style=&quot;font-size: 24px;&quot;&gt;Apakah Sudah&amp;nbsp;&lt;br&gt;Salah 5 Kali?&lt;br&gt;&lt;/font&gt;" style="rhombus;whiteSpace=wrap;html=1;" vertex="1" parent="WIyWlLk6GJQsqaUBKTNV-1">
          <mxGeometry x="496" y="1210" width="226" height="220" as="geometry" />
        </mxCell>
        <mxCell id="j7wIYf2BwnpDg87sZHBd-115" value="&lt;span style=&quot;font-size: 24px;&quot;&gt;YA&lt;/span&gt;" style="text;html=1;strokeColor=none;fillColor=none;align=center;verticalAlign=middle;whiteSpace=wrap;rounded=0;" vertex="1" parent="WIyWlLk6GJQsqaUBKTNV-1">
          <mxGeometry x="340" y="1330" width="60" height="30" as="geometry" />
        </mxCell>
        <mxCell id="j7wIYf2BwnpDg87sZHBd-121" value="&lt;font style=&quot;font-size: 24px;&quot;&gt;TIDAK&lt;/font&gt;" style="text;html=1;strokeColor=none;fillColor=none;align=center;verticalAlign=middle;whiteSpace=wrap;rounded=0;" vertex="1" parent="WIyWlLk6GJQsqaUBKTNV-1">
          <mxGeometry x="670" y="910" width="60" height="30" as="geometry" />
        </mxCell>
        <mxCell id="j7wIYf2BwnpDg87sZHBd-122" value="&lt;font style=&quot;font-size: 24px;&quot;&gt;Proses Registrasi&lt;br&gt;Memasukkan Data Yang Sesuai&lt;br&gt;&lt;/font&gt;" style="rounded=1;whiteSpace=wrap;html=1;" vertex="1" parent="WIyWlLk6GJQsqaUBKTNV-1">
          <mxGeometry x="930" y="430" width="230" height="140" as="geometry" />
        </mxCell>
      </root>
    </mxGraphModel>
  </diagram>
</mxfile>
